<?xml version="1.0" standalone="no"?>
<!DOCTYPE svg PUBLIC "-//W3C//DTD SVG 20010904//EN"
 "http://www.w3.org/TR/2001/REC-SVG-20010904/DTD/svg10.dtd">
<svg version="1.0" xmlns="http://www.w3.org/2000/svg"
 width="1024.000000pt" height="1024.000000pt" viewBox="0 0 1024.000000 1024.000000"
 preserveAspectRatio="xMidYMid meet">
<metadata>
Created by potrace 1.16, written by Peter Selinger 2001-2019
</metadata>
<g transform="translate(0.000000,1024.000000) scale(0.100000,-0.100000)"
fill="#000000" stroke="none">
<path d="M0 5120 l0 -5120 5120 0 5120 0 0 5120 0 5120 -5120 0 -5120 0 0
-5120z m6544 2558 c-124 -229 -1174 -2303 -1174 -2318 0 -6 118 -10 331 -10
323 0 331 0 318 -19 -18 -24 -166 -192 -814 -922 -678 -763 -859 -968 -1112
-1261 -79 -93 -146 -168 -149 -168 -8 0 24 56 49 86 31 39 83 112 197 279 53
77 149 217 215 310 109 156 500 719 725 1045 52 74 133 191 182 260 73 104 85
126 70 131 -9 4 -104 28 -209 54 l-193 48 -71 -26 c-65 -24 -73 -25 -105 -12
-19 8 -34 18 -34 23 0 5 16 30 35 56 20 25 33 46 30 46 -3 0 1 13 10 30 15 30
21 65 7 44 -10 -16 -40 -13 -47 4 -3 9 0 19 7 24 10 6 10 8 -2 9 -8 1 -18 1
-22 0 -4 0 -5 6 -2 14 4 8 1 15 -5 15 -6 0 -11 -5 -11 -11 0 -7 -9 0 -21 15
-11 14 -17 30 -14 36 3 5 2 10 -3 10 -22 0 -59 49 -65 87 -6 36 -9 40 -32 35
-14 -2 -25 0 -25 4 0 5 83 158 184 339 l183 330 170 3 170 2 109 127 c60 70
133 156 163 192 30 36 156 185 280 331 124 147 280 331 346 410 156 187 366
430 370 430 2 0 -16 -37 -41 -82z m-466 -48 c1 -8 -19 -44 -45 -80 -110 -151
-313 -454 -308 -459 3 -3 37 -8 76 -12 38 -3 72 -9 75 -12 4 -3 -21 -37 -55
-75 l-62 -69 -77 5 -78 4 -46 -70 c-26 -39 -72 -105 -103 -148 -30 -42 -55
-81 -55 -86 0 -5 14 -11 30 -15 37 -7 43 -15 27 -36 -10 -14 -17 -14 -49 -3
l-38 14 -35 -44 c-23 -27 -41 -41 -50 -37 -21 7 -19 36 5 66 11 14 17 28 13
30 -16 10 -160 36 -255 46 -251 28 -496 0 -761 -85 -156 -51 -186 -66 -205
-105 -20 -40 -62 -51 -93 -23 -43 39 -7 100 53 91 22 -3 48 3 79 19 76 38 276
101 393 123 274 53 497 47 818 -22 12 -2 212 283 204 291 -3 3 -86 7 -183 10
l-178 4 -29 -47 c-37 -60 -53 -75 -71 -69 -22 9 -18 34 10 77 l26 37 -138 0
c-388 0 -990 -76 -1463 -185 -164 -37 -439 -112 -456 -123 -8 -5 -13 -213 -18
-651 -7 -654 -9 -697 -42 -654 -7 10 -14 13 -14 7 0 -6 -8 -20 -17 -31 -15
-16 -22 -17 -40 -8 -18 9 -20 14 -10 25 10 12 9 12 -5 1 -14 -10 -18 -28 -18
-73 0 -33 4 -68 10 -78 7 -13 6 -21 -5 -30 -13 -11 -15 90 -15 802 l0 815 147
43 c489 143 971 231 1533 281 137 13 757 18 974 9 l120 -5 190 278 c155 226
194 277 210 275 12 -2 22 -10 24 -18z m648 -164 c8 -22 -134 -246 -156 -246
-43 0 -35 21 92 228 21 33 54 43 64 18z m-70 -461 c4 -8 1 -22 -6 -30 -7 -9
-11 -17 -9 -19 2 -2 63 -16 134 -31 138 -29 363 -88 502 -131 l83 -26 0 -635
0 -634 -77 -127 c-42 -70 -79 -130 -82 -134 -3 -4 -6 308 -6 693 0 599 -2 701
-14 709 -51 31 -590 160 -819 196 -61 10 -117 21 -123 25 -17 10 57 149 80
149 10 0 78 -11 152 -25 157 -29 155 -29 140 -11 -6 7 -9 21 -5 30 8 20 43 21
50 1z m-1686 -85 c0 -12 -11 -14 -168 -35 -337 -44 -639 -174 -917 -396 -60
-47 -76 -55 -85 -44 -9 11 2 24 52 66 211 176 524 326 792 379 166 33 326 48
326 30z m1899 -250 c103 -78 180 -171 237 -285 51 -103 74 -197 74 -306 0 -84
-12 -106 -53 -95 -23 5 -24 11 -30 103 -13 220 -105 385 -292 526 -38 29 -71
60 -73 69 -3 18 23 48 43 48 8 0 50 -27 94 -60z m-131 -135 c147 -100 244
-262 259 -430 5 -59 3 -74 -11 -88 -20 -19 -34 -21 -56 -7 -10 6 -16 36 -21
95 -6 71 -13 100 -42 159 -37 75 -101 147 -172 196 -49 33 -56 46 -44 78 11
29 41 28 87 -3z m-82 -174 c57 -42 89 -79 119 -138 35 -71 44 -147 20 -173
-35 -38 -64 -17 -71 52 -7 62 -39 121 -87 162 -23 20 -50 43 -59 51 -22 19
-23 39 -2 59 22 22 35 20 80 -13z m-3044 -144 c-135 -167 -291 -441 -279 -489
3 -10 1 -16 -4 -12 -5 3 -9 0 -9 -5 0 -6 -4 -11 -10 -11 -5 0 -10 7 -10 15 0
18 -12 19 -27 4 -8 -8 -13 -7 -18 2 -5 8 -4 10 3 5 7 -4 12 -2 12 3 0 6 6 11
14 11 7 0 21 21 31 48 51 137 162 323 273 457 50 61 66 74 77 65 11 -9 1 -27
-53 -93z m2979 -46 c34 -35 36 -59 8 -95 -53 -67 -164 -1 -128 77 23 51 78 60
120 18z m-2241 -37 c0 -6 -27 -22 -60 -34 -122 -46 -286 -154 -422 -280 -88
-80 -120 -79 -54 2 90 111 271 239 443 313 76 34 92 33 93 -1z m1690 26 c17
-11 15 -15 -94 -205 -63 -109 -82 -135 -101 -135 -31 0 -18 38 61 176 108 188
104 183 134 164z m-2297 -151 c43 -53 5 -129 -65 -129 -51 0 -78 27 -78 79 0
31 6 44 27 61 34 27 89 22 116 -11z m2865 -252 c18 -42 44 -121 58 -174 23
-87 25 -112 21 -223 -6 -148 -27 -229 -97 -377 -64 -136 -134 -236 -250 -357
-305 -318 -713 -502 -1179 -532 l-113 -7 17 27 c16 24 23 26 89 26 40 0 76 3
79 6 4 4 33 8 64 10 132 6 380 82 554 170 216 108 453 305 578 481 160 225
239 479 211 678 -13 93 -47 201 -90 285 -21 42 -26 60 -17 64 29 12 44 -4 75
-77z m-2058 -55 c0 -25 -39 -45 -160 -85 -391 -128 -697 -376 -832 -675 -27
-58 -30 -75 -25 -127 7 -73 57 -217 103 -301 30 -53 32 -63 18 -68 -9 -3 -19
-4 -24 -1 -20 12 -75 126 -104 217 l-33 100 -18 -64 c-10 -34 -21 -108 -25
-163 -4 -55 -8 -89 -9 -75 -1 21 -3 22 -12 10 -20 -29 0 186 26 276 14 46 25
100 25 118 0 43 64 166 149 286 172 244 471 439 819 535 101 27 102 28 102 17z
m2390 -262 c54 -54 -11 -141 -79 -105 -67 34 -46 125 29 125 17 0 39 -9 50
-20z m-2244 -349 c-3 -4 -74 -45 -158 -91 -84 -45 -156 -85 -160 -88 -4 -4 6
-8 23 -9 17 -1 29 3 29 10 0 8 3 8 8 2 4 -6 19 -16 34 -22 35 -16 68 -44 68
-60 0 -6 10 -14 23 -16 12 -2 -67 -5 -175 -6 -109 0 -198 1 -198 3 0 12 486
286 506 286 3 0 3 -4 0 -9z m2632 -268 c-32 -564 -63 -761 -152 -949 -95 -200
-239 -357 -545 -592 -393 -303 -786 -545 -1293 -798 l-216 -108 -104 48 c-236
108 -820 433 -957 532 -2 2 16 25 40 52 l43 48 140 -86 c197 -121 376 -220
624 -344 l213 -106 217 109 c509 258 948 535 1280 809 315 260 455 454 506
705 20 96 43 303 52 462 l6 120 72 112 c39 61 73 112 76 112 3 1 2 -56 -2
-126z m-326 -370 c10 -9 18 -25 18 -36 0 -23 -27 -57 -45 -57 -7 0 -16 -12
-20 -27 -12 -51 -104 -233 -160 -320 -104 -159 -251 -318 -419 -452 -74 -58
-92 -69 -104 -59 -12 11 -9 17 23 43 195 154 329 288 432 433 102 143 217 382
194 405 -27 27 2 87 42 87 11 0 29 -7 39 -17z m-3375 -275 c68 -64 -25 -168
-98 -109 -17 13 -23 29 -23 56 0 67 72 99 121 53z m-613 -108 c22 -102 90
-238 157 -313 54 -61 159 -135 236 -168 101 -43 112 -53 93 -90 -14 -26 -48
-24 -121 6 -213 86 -394 309 -444 547 -17 77 -13 105 13 111 35 8 48 -11 66
-93z m164 88 c5 -7 15 -37 21 -66 16 -77 66 -168 124 -227 46 -46 110 -83 210
-123 31 -13 37 -51 11 -73 -39 -32 -241 79 -315 174 -49 61 -70 102 -98 186
-24 73 -26 112 -9 129 16 16 43 15 56 0z m198 -18 c61 -133 81 -156 172 -196
41 -19 52 -29 52 -47 0 -28 -17 -47 -42 -47 -29 0 -115 47 -160 88 -44 39 -98
140 -98 183 0 52 54 66 76 19z m660 -294 c6 -14 -136 -255 -162 -277 -16 -13
-34 -4 -34 18 0 15 35 77 117 206 42 65 68 82 79 53z m538 -402 c20 -8 18 -12
-106 -187 -112 -159 -136 -187 -155 -187 -30 0 -8 49 78 167 171 238 154 218
183 207z m227 -402 c48 -40 10 -132 -55 -132 -39 0 -76 37 -76 76 0 66 77 99
131 56z m-1057 -74 c-40 -78 -206 -348 -213 -348 -5 0 -14 6 -20 14 -9 10 11
51 91 184 85 142 104 167 114 154 10 -14 13 -13 23 6 6 12 14 22 17 22 2 0 -3
-15 -12 -32z m5951 -2197 c16 -73 122 -179 198 -197 35 -8 35 -21 -2 -29 -73
-16 -179 -122 -197 -197 -8 -36 -21 -36 -29 1 -16 73 -122 179 -197 197 -36 8
-36 21 1 29 73 16 179 122 197 198 8 35 21 35 29 -2z"/>
</g>
</svg>
